<?xml version="1.0" encoding="utf-8"?>
<!-- Generator: Adobe Illustrator 23.0.4, SVG Export Plug-In . SVG Version: 6.00 Build 0)  -->
<svg version="1.1" id="Ebene_1" xmlns="http://www.w3.org/2000/svg" xmlns:xlink="http://www.w3.org/1999/xlink" x="0px" y="0px"
	 viewBox="0 0 700 700" style="enable-background:new 0 0 700 700;" xml:space="preserve">
<style type="text/css">
	.st0{fill-rule:evenodd;clip-rule:evenodd;fill:#E0342F;}
	.st1{fill:none;stroke:#FFFFFF;stroke-linejoin:round;stroke-miterlimit:10;}
	.st2{fill-rule:evenodd;clip-rule:evenodd;fill:#BFBFBF;}
	.st3{fill-rule:evenodd;clip-rule:evenodd;fill:#259C44;}
</style>
<polygon class="st0" points="-375.2,307.9 -377.2,307.9 -376.5,309.1 -375.8,309.1 -375.2,308.5 -374.6,308.5 "/>
<polyline class="st1" points="-375.2,307.9 -377.2,307.9 -376.5,309.1 -375.8,309.1 -375.2,308.5 -374.6,308.5 -375.2,307.9 "/>
<polygon class="st0" points="-368.8,311.6 -369.6,311 -371.5,311 -371.5,311.6 -370.8,311.6 "/>
<polyline class="st1" points="-368.8,311.6 -369.6,311 -371.5,311 -371.5,311.6 -370.8,311.6 -368.8,311.6 "/>
<polygon class="st0" points="-371.5,321.3 -372.1,321.3 -372.1,321.9 -371.5,321.9 -370.8,321.3 "/>
<polyline class="st1" points="-371.5,321.3 -372.1,321.3 -372.1,321.9 -371.5,321.9 -370.8,321.3 -371.5,321.3 "/>
<polygon class="st2" points="-390.5,169.4 -390.5,169.4 -392.5,168.1 -393.1,168.1 -391.7,169.4 -391.1,169.4 "/>
<polyline class="st1" points="-390.5,169.4 -390.5,169.4 -392.5,168.1 -393.1,168.1 -391.7,169.4 -391.1,169.4 -390.5,169.4 "/>
<polygon class="st2" points="-395.6,169.4 -396.2,169.4 -395.6,170 "/>
<polyline class="st1" points="-395.6,169.4 -396.2,169.4 -395.6,170 -395.6,169.4 "/>
<polygon class="st2" points="-392.5,170.6 -391.7,170.6 -392.5,170 -394.3,169.4 -394.3,170 -393.7,170.6 -393.1,170.6 "/>
<polyline class="st1" points="-392.5,170.6 -391.7,170.6 -392.5,170 -394.3,169.4 -394.3,170 -393.7,170.6 -393.1,170.6 
	-392.5,170.6 "/>
<polygon class="st2" points="-386.7,168.1 -387.3,167.5 -388,168.1 -388,168.8 -387.3,168.8 -386.7,168.8 "/>
<polyline class="st1" points="-386.7,168.1 -387.3,167.5 -388,168.1 -388,168.8 -387.3,168.8 -386.7,168.8 -386.7,168.1 "/>
<polygon class="st2" points="-375.2,174.4 -375.8,174.4 -379.1,174.4 -379.1,175.1 -377.2,175.8 -375.8,175.1 "/>
<polyline class="st1" points="-375.2,174.4 -375.8,174.4 -379.1,174.4 -379.1,175.1 -377.2,175.8 -375.8,175.1 -375.2,174.4 "/>
<polygon class="st2" points="-374.6,180.8 -374.6,180.8 -375.2,180.8 "/>
<polyline class="st1" points="-374.6,180.8 -374.6,180.8 -375.2,180.8 -374.6,180.8 "/>
<path class="st3" d="M18.4,127l12.4,16.8l8.9-3.1l-3.1-16.8l11.1-7.1l1.8-5.3l7.5-1.3l8-5.3l6.7-9.8h10.2l-0.9,5.3h6.2l3.5-4.4
	l8-1.8l4,6.7l9.8-1.3l7.5,2.7l2.7,4.9l4,3.1l7.1,6.2l0.4,7.5l3.1,0.4l2.7-8l5.3-0.4c0,0,8,9.8,9.8,8c1.8-1.8,8-2.2,8-3.5
	c0-1.3,1.8-7.5,1.8-7.5l16-2.7l4.4,4.9h5.3v-4.9l10.6-0.9l4.4,7.5l16.4,8.4l5.8-1.3l3.1-8l3.1,4.4l11.1,2.2l9.8-4l2.7-12.9l-11.5-4
	l-1.8-4h-6.7l0.9-4l-5.8-2.7l-3.1-4l16.8-5.8l-4.4-12l6.2-6.7l16.4,0.9l1.3-4.4l-16-4.4v-4.9l6.2-0.4l-10.6-3.1l3.5-5.3l0.4-4.9
	l4-2.2l9.3,2.7l4.9-1.3l4,3.5c0,0,7.1-5.8,9.3-6.7c2.2-0.9,30.6-6.7,30.6-6.7l5.3,1.3l1.8-3.5l45.7-11.1l3.1,0.9l3.5-4l-1.8-4.4
	c0,0,7.1,1.3,7.5-0.4c0.4-1.8,4.9-3.5,4.9-3.5l13.3,2.2l8.9,5.3l10.2-4.9l2.7,10.2l4.4,6.7l-2.7,7.5l1.8,6.7l15.1-3.1l1.3-4.4
	l6.7,10.2l1.3-4.4l6.7,3.1l4.9,1.8l5.3-2.7l1.8,4.9l-5.3,1.3l-3.1,5.8l2.2,5.3l5.3-6.2l7.5,0.9l3.5,2.7l1.8-6.2c0,0,16-3.5,16-5.3
	s0-5.8,0-5.8l24.8-8.4v6.2l-6.7,4.4l2.7,4l20.8,15.1l36.4,64.3c0,0,7.5-1.8,7.1-3.5c-0.4-1.8,1.3-6.7,1.3-6.7l2.7-3.1l7.5,2.7
	l-0.9,6.7l6.2,0.4l1.8,4.9l4.9-0.9l9.3,0.9l6.7-1.3l9.3-4.4l13.3,6.7l3.1,4.9l0.9,7.5l6.7,1.3l7.5,8l2.2,8l12.4,1.8l13.3-7.1
	l-0.9,5.8l4,5.8l9.3,4.9l-11.5,1.3l-2.2,11.1l-10.2,5.3l-6.7,2.7l-1.8,8.9l1.3,20.4l-15.5,8.4l-4-4.9c0,0-7.5,2.7-10.6,1.3
	s-12.9-6.2-12.9-6.2l-15.1,42.6l6.2,3.5l-1.8,7.1l-10.6-0.4l-3.1-3.1l-29.7,6.7v5.3l7.1,0.9l2.2,3.1l-1.8,10.2l6.2,22.2l0.9,5.8
	l-8.4,4.9l4.9,3.5l-6.2,2.2v13.7l-7.1-4.9l-7.5-1.3l-3.5-7.5l-16-3.1l-26.6-0.4l-15.1-1.8l-2.2,5.3l-14.2-4.4l-11.1-7.1l-9.8,4.9
	l-2.7,8l0.9,5.3l-9.3-0.4l-10.6-5.3l-14.2-1.3l-7.1,5.3l-7.5,13.3l-4-0.9l-6.2,8.4l-6.2,3.5l-8,4.9l-9.8,12.4v8.9c0,0-8.4-4.4-8-5.8
	s0.4-5.3,0.4-5.3l-2.7-4l-23.5-1.8l-0.4-15.1l-9.8-2.7l0.4-9.8l0.4-16.8l-4,3.1l-4.4-11.1l-4.9-5.3l-2.2-6.2l-12,3.1l-19.5-0.9
	l-22.2,5.3l-17.3-24.8l-40.3-30.2l-44.3,16c0,0,3.5,92.7,0.9,93.1c-2.7,0.4-10.6,4-10.2,2.2c0.4-1.8-9.3-14.2-9.3-14.2l-1.3-6.2
	l-9.8-6.7l-14.6,0.4l-10.2,7.1l-6.2,5.8l-0.9-7.1c0,0,1.8-8.9,3.1-9.8c1.3-0.9,1.8-5.8,1.8-5.8l-6.2-4l-6.7-0.4l-4.9-8l-5.3,0.4
	l1.3-5.3l-9.8-20.8l-11.1-4.4l1.3-8l15.5,4.4l4-2.2l-7.1-7.5l3.5-5.3l3.1-7.1l7.1-2.2l12,0.9l9.8,2.2l-5.3-6.2l6.2-12.4l-1.3-12
	l1.3-4l-3.1-5.8l-7.5-2.2c0,0-1.8,5.3-5.8,4.4c-4-0.9-16-7.5-16-7.5l-21.7,13.3l-6.2,0.9l-4.4,3.1l-3.1,4.4L33,225.9l0.9-4.4
	l6.2,2.7l2.7-3.5L36.6,209l-0.9-4l-4-1.3l-4.9-7.1l-12.4-1.8l-3.5,3.1l-3.1-7.5l3.5-7.5l-9.8-2.7L4.2,166l4-4.9l-2.7-3.5v-16
	l5.3-2.7l2.2-4v-4L18.4,127z"/>
</svg>
